<?xml version="1.0" encoding="iso-8859-1"?>
<!-- Generator: Adobe Illustrator 19.0.0, SVG Export Plug-In . SVG Version: 6.00 Build 0)  -->
<svg version="1.1" id="Layer_1" xmlns="http://www.w3.org/2000/svg" xmlns:xlink="http://www.w3.org/1999/xlink" x="0px" y="0px"
	 viewBox="0 0 512 512" style="enable-background:new 0 0 512 512;" xml:space="preserve">
<g>
	<path style="fill:#5ABA63;" d="M292.745,247.172C356.127,153.529,322.141,66.145,256.004,0
		c-66.145,66.145-100.131,153.529-36.749,247.172H292.745z"/>
	<g>
		<path style="fill:#91CF96;" d="M256,255.138c-4.882,0-8.828-3.946-8.828-8.828v-140.5c0-4.882,3.946-8.828,8.828-8.828
			s8.828,3.946,8.828,8.828v140.5C264.828,251.192,260.882,255.138,256,255.138"/>
		<path style="fill:#91CF96;" d="M292.697,247.172h55.693C411.728,190.464,406.07,96.98,406.07,0
			c-30.773,4.237-63.7,39.371-90.854,87.128C333.843,135.954,331.106,190.411,292.697,247.172"/>
		<path style="fill:#91CF96;" d="M163.611,247.172h55.693c-38.409-56.761-41.145-111.219-22.519-160.044
			C169.632,39.371,136.705,4.237,105.932,0C105.932,96.98,100.265,190.464,163.611,247.172"/>
	</g>
	<g>
		<polygon style="fill:#7F5B53;" points="70.621,291.31 441.379,291.31 441.379,247.172 70.621,247.172 		"/>
		<polygon style="fill:#7F5B53;" points="397.241,512 114.759,512 105.931,476.69 406.069,476.69 		"/>
	</g>
	<polygon style="fill:#AF8066;" points="375.172,476.69 406.069,291.31 105.931,291.31 136.828,476.69 	"/>
	<g>
		<path style="fill:#D9AA94;" d="M220.69,353.103h-8.828c-4.873,0-8.828-3.946-8.828-8.828c0-4.882,3.955-8.828,8.828-8.828h8.828
			c4.873,0,8.828,3.946,8.828,8.828C229.517,349.158,225.562,353.103,220.69,353.103"/>
		<path style="fill:#D9AA94;" d="M264.828,423.724H256c-4.873,0-8.828-3.946-8.828-8.828c0-4.882,3.955-8.828,8.828-8.828h8.828
			c4.873,0,8.828,3.946,8.828,8.828C273.655,419.778,269.7,423.724,264.828,423.724"/>
		<path style="fill:#D9AA94;" d="M386.895,406.356c-0.486-0.079-0.918-0.291-1.421-0.291h-85.336c-4.873,0-8.828,3.955-8.828,8.828
			c0,4.882,3.955,8.828,8.828,8.828h83.862L386.895,406.356z"/>
		<path style="fill:#D9AA94;" d="M176.552,335.448h-61.793c-0.503,0-0.945,0.203-1.421,0.291l2.895,17.364h60.319
			c4.873,0,8.828-3.946,8.828-8.828C185.379,339.394,181.425,335.448,176.552,335.448"/>
	</g>
	<g>
		<path style="fill:#5ABA63;" d="M204.939,240.595c-37.703-33.757-41.754-75.546-46.892-128.45
			c-2.701-27.825-5.782-59.039-14.292-93.016c-6.312-5.305-12.659-9.657-18.997-12.879c-1.13,1.977-1.51,4.387-0.847,6.762
			c10.337,36.723,13.647,70.788,16.561,100.846c4.988,51.412,9.375,96.203,45.842,133.314H207.8
			C207.8,244.744,206.89,242.334,204.939,240.595"/>
		<path style="fill:#5ABA63;" d="M388.086,13.008c0.671-2.375,0.283-4.785-0.847-6.762c-6.338,3.222-12.685,7.574-18.997,12.879
			c-8.501,33.977-11.591,65.192-14.283,93.016c-5.138,52.913-9.19,94.694-46.901,128.45c-1.942,1.748-2.86,4.158-2.851,6.577h21.478
			c36.467-37.111,40.854-81.894,45.842-133.314C374.439,83.806,377.749,49.731,388.086,13.008"/>
	</g>
</g>
<g>
</g>
<g>
</g>
<g>
</g>
<g>
</g>
<g>
</g>
<g>
</g>
<g>
</g>
<g>
</g>
<g>
</g>
<g>
</g>
<g>
</g>
<g>
</g>
<g>
</g>
<g>
</g>
<g>
</g>
</svg>
